<svg xmlns="http://www.w3.org/2000/svg" viewBox="0 0 180.97 159.61"><defs><style>.cls-1{fill:#30acfa}</style></defs><g id="Layer_2" data-name="Layer 2"><g id="Layer_1-2" data-name="Layer 1"><path class="cls-1" d="M90.27 98.12c-23.36 0-42.37-22-42.37-49.06S66.91 0 90.27 0s42.38 22 42.38 49.06-19.01 49.06-42.38 49.06zm0-93C69.73 5.12 53 24.83 53 49.06S69.73 93 90.27 93s37.25-19.71 37.25-43.94S110.81 5.12 90.27 5.12z"/><path class="cls-1" d="M65.46 35.58a2.52 2.52 0 01-1.1-.25 2.56 2.56 0 01-1.21-3.42c4.18-8.8 11.42-15.2 19.86-17.54a2.56 2.56 0 011.37 4.94c-7 1.94-13.06 7.34-16.61 14.8a2.55 2.55 0 01-2.31 1.47zm29.98 69.93H85.11c-2.74 0-5.7-2.64-5.7-6.91 0-5.09 3.57-5.09 5.09-5.09h10.94c1.41 0 5.7 0 5.7 5.09 0 4.27-2.96 6.91-5.7 6.91zM83.6 97.64a3.92 3.92 0 00-.09 1c0 2 1.14 2.81 1.6 2.81h10.33c.45 0 1.6-.83 1.6-2.81a1.7 1.7 0 00-.14-.87 5.06 5.06 0 00-1.46-.12H84.5a8.53 8.53 0 00-.9-.01z"/><path class="cls-1" d="M102.12 159.61a2.05 2.05 0 01-2-1.87c-.53-6.12-2.9-9.05-5.9-12.76-3.41-4.22-7.28-9-9.26-19.24-2.31-11.91 3.3-22.77 3.54-23.23a2.05 2.05 0 113.63 1.91c-.09.16-5.17 10.11-3.15 20.54 1.79 9.24 5.16 13.41 8.42 17.44s6.17 7.61 6.81 15a2 2 0 01-1.87 2.22zM41.7 115.87c-16.53 0-32.76-12.21-39.07-31a47 47 0 01.55-32.52c4.1-10.14 11.65-17.52 21.25-20.75a34 34 0 0120.92-.14 2.56 2.56 0 01-1.51 4.9 28.83 28.83 0 00-17.77.1c-8.17 2.75-14.61 9.08-18.14 17.82a41.9 41.9 0 00-.44 29c6.75 20.08 26.09 31.76 43.09 26a29.18 29.18 0 0016-13.47A2.56 2.56 0 0171 98.39a34.22 34.22 0 01-18.83 15.77 32.9 32.9 0 01-10.47 1.71z"/><path class="cls-1" d="M13.08 69h-.31a2.57 2.57 0 01-2.24-2.85c1-8.62 5.33-16.07 11.8-20.45a2.56 2.56 0 112.87 4.24c-5.23 3.55-8.72 9.68-9.58 16.82A2.56 2.56 0 0113.08 69zm35.49 53a5.27 5.27 0 01-2.75-.81 7 7 0 01-2.88-3.74c-.22-.67-.92-2.73.3-4.35a5.06 5.06 0 012.68-1.64l9.14-3.08c1.23-.41 5-1.68 6.5 2.81 1.24 3.71-.57 6.87-3 7.68L50 121.73a4.29 4.29 0 01-1.43.27zm-1.9-6.46a3.66 3.66 0 00.16.6c.52 1.56 1.59 1.82 1.82 1.75l8.63-2.9c.22-.08.91-.94.39-2.5a2.16 2.16 0 00-.24-.52 5.75 5.75 0 00-1.06.3l-9.15 3.08zm11.26 1.39zm81.44-13.8a33.18 33.18 0 01-22.25-8.57 2.56 2.56 0 013.43-3.81 28 28 0 009.86 5.79c8.16 2.74 17.12 1.59 25.22-3.24a41.86 41.86 0 0017.87-22.81c6.76-20.08-1.58-41.07-18.58-46.8a28.83 28.83 0 00-17.77-.09 2.56 2.56 0 01-1.51-4.9 33.89 33.89 0 0120.92.14c19.68 6.62 29.46 30.52 21.8 53.29a47 47 0 01-20.11 25.57 36.76 36.76 0 01-18.88 5.43z"/><path class="cls-1" d="M167.9 56.24a2.57 2.57 0 01-2.54-2.24c-.85-7.15-4.34-13.28-9.58-16.82a2.57 2.57 0 012.88-4.25c6.46 4.38 10.76 11.84 11.79 20.46a2.56 2.56 0 01-2.24 2.85zm-35.49 52.94A4.24 4.24 0 01131 109l-8.63-2.9c-2.4-.81-4.22-4-3-7.69 1.51-4.48 5.26-3.22 6.5-2.8l9.14 3.08c1.34.45 4.48 1.5 3 6a6.19 6.19 0 01-5.6 4.49zm-8.7-7l8.63 2.91c.22.07 1.29-.2 1.82-1.75a3.94 3.94 0 00.16-.6l-.56-.2-9.14-3.08a6.65 6.65 0 00-1.07-.29 2.07 2.07 0 00-.23.52c-.53 1.54.16 2.4.39 2.48z"/><path class="cls-1" d="M111.24 156.57a2.22 2.22 0 01-.51-.06 2.06 2.06 0 01-1.47-2.5c0-.16 4.15-16.25 3-29.7-1.34-15.37 13.33-20.93 13.47-21a2.05 2.05 0 011.42 3.85c-.48.18-11.87 4.58-10.81 16.78 1.24 14.17-2.92 30.4-3.09 31.09a2.05 2.05 0 01-2.01 1.54zm-20.66 3.04a2 2 0 01-1.94-1.37c0-.08-3.67-9.7-18.43-17.08C53.58 132.85 52 119 52 118.4a2.05 2.05 0 114.08-.41c.06.52 1.48 12.25 16 19.5 16.36 8.18 20.31 18.94 20.47 19.39a2 2 0 01-1.25 2.61 2.08 2.08 0 01-.72.12z"/></g></g></svg>