<svg width="52" height="69" viewBox="0 0 52 69" fill="none" xmlns="http://www.w3.org/2000/svg">
<path d="M28.0315 49.5937C28.0315 50.1656 27.8044 50.714 27.4 51.1184C26.9956 51.5228 26.4472 51.7499 25.8753 51.7499C25.3034 51.7499 24.755 51.5228 24.3506 51.1184C23.9462 50.714 23.719 50.1656 23.719 49.5937V33.2364L18.7769 38.1828C18.372 38.5877 17.8229 38.8152 17.2503 38.8152C16.6777 38.8152 16.1285 38.5877 15.7237 38.1828C15.3188 37.7779 15.0913 37.2288 15.0913 36.6562C15.0913 36.0836 15.3188 35.5345 15.7237 35.1296L24.3487 26.5046C24.549 26.3038 24.7869 26.1445 25.0489 26.0357C25.3108 25.927 25.5917 25.8711 25.8753 25.8711C26.1589 25.8711 26.4397 25.927 26.7017 26.0357C26.9637 26.1445 27.2016 26.3038 27.4019 26.5046L36.0269 35.1296C36.4318 35.5345 36.6593 36.0836 36.6593 36.6562C36.6593 37.2288 36.4318 37.7779 36.0269 38.1828C35.622 38.5877 35.0729 38.8152 34.5003 38.8152C33.9277 38.8152 33.3785 38.5877 32.9737 38.1828L28.0315 33.2364V49.5937Z" fill="#E1E1E1"/>
<path d="M51.75 60.375V19.4062L32.3438 0H8.625C6.33751 0 4.1437 0.908703 2.5262 2.5262C0.908702 4.14371 0 6.33751 0 8.625V60.375C0 62.6625 0.908702 64.8563 2.5262 66.4738C4.1437 68.0913 6.33751 69 8.625 69H43.125C45.4125 69 47.6063 68.0913 49.2238 66.4738C50.8413 64.8563 51.75 62.6625 51.75 60.375ZM32.3438 12.9375C32.3438 14.6531 33.0253 16.2985 34.2384 17.5116C35.4515 18.7247 37.0969 19.4062 38.8125 19.4062H47.4375V60.375C47.4375 61.5187 46.9831 62.6156 46.1744 63.4244C45.3656 64.2331 44.2687 64.6875 43.125 64.6875H8.625C7.48125 64.6875 6.38435 64.2331 5.5756 63.4244C4.76685 62.6156 4.3125 61.5187 4.3125 60.375V8.625C4.3125 7.48125 4.76685 6.38435 5.5756 5.5756C6.38435 4.76685 7.48125 4.3125 8.625 4.3125H32.3438V12.9375Z" fill="#E1E1E1"/>
</svg>
