<svg xmlns="http://www.w3.org/2000/svg" width="63.013" height="63.013"><path data-name="Path 348" d="M31.506 63.013A31.506 31.506 0 010 31.506 31.506 31.506 0 0131.506 0a31.506 31.506 0 0131.507 31.506 31.508 31.508 0 01-31.507 31.507z" fill="#f58138"/><path d="M27.177 27.287c.338-.345.436-.359 2.561-.359 1.913 0 1.977.007 2.258.148a.956.956 0 01.584.957 1.042 1.042 0 01-.535.943c-.2.127-.317.134-2.188.148a19.311 19.311 0 01-2.216-.056 1.114 1.114 0 01-.464-1.781zm4.319 6.648c-3.792 0-3.925.014-4.235.288a1.244 1.244 0 00-.359.978 1.217 1.217 0 00.647.844 22.716 22.716 0 003.96.084l3.37-.042.647-.106a1.077 1.077 0 00.218-1.716c-.373-.331-.352-.331-4.249-.331zm15.715 9.152a4.694 4.694 0 01-3.595 4.045c-.506.127-.682.134-12.163.127-11.1 0-11.67-.007-12.1-.127a5.047 5.047 0 01-1.569-.7 5.681 5.681 0 01-1.2-1.154 6.047 6.047 0 01-.7-1.548c-.124-.474-.131-.664-.131-12.201 0-11.473 0-11.715.127-12.215a4.744 4.744 0 013.6-3.461c.514-.113 23.362-.134 23.917-.021a4.7 4.7 0 013.348 2.561c.542 1.076.492-.106.514 12.7.016 8.146.002 11.572-.048 11.994zm-6.007-13.028a1.252 1.252 0 00-.542-.809 5.781 5.781 0 00-1.09-.12c-.872-.042-.971-.056-1.252-.218-.436-.253-.556-.535-.563-1.287a5.6 5.6 0 00-1.78-3.975 6.621 6.621 0 00-2.856-1.766 15.2 15.2 0 00-2.758-.127c-3.018-.035-3.693.028-4.72.436a6.21 6.21 0 00-3.756 4.39 30.545 30.545 0 00-.134 4.524c-.028 4.418 0 5.072.281 5.944a6.139 6.139 0 004.544 4.108c.647.12 8.6.148 9.405.035a5.826 5.826 0 003.57-1.821 5.951 5.951 0 001.534-2.708 48.044 48.044 0 00.117-6.606z" fill="#fff"/></svg>