<svg xmlns="http://www.w3.org/2000/svg" viewBox="0 0 161.37 247.95"><defs><style>.cls-3{fill:#afafaf}.cls-4,.cls-8{opacity:.5}.cls-4{mix-blend-mode:soft-light}.cls-6{fill:#7f7f7f}.cls-7{opacity:.7}.cls-8{fill:#bcbcbc}</style></defs><g style="isolation:isolate"><g id="Layer_2" data-name="Layer 2"><g opacity=".4" id="Layer_1-2" data-name="Layer 1"><path class="cls-3" d="M161.37 36.61V230a18 18 0 01-18 18H18a18 18 0 01-18-18V36.61a18 18 0 0118-18h125.39a18 18 0 0117.98 18z"/><path class="cls-4" d="M124 21.15h-20.76a20.89 20.89 0 00-.21-2.52H58.34a20.89 20.89 0 00-.21 2.52H37.41a11 11 0 00-11 11.05v4.17H135V32.2a11.05 11.05 0 00-11-11.05z"/><rect class="cls-4" x="10.61" y="32.61" width="140.14" height="205.44" rx="6.62"/><rect x="10.61" y="30.57" width="140.14" height="205.44" rx="6.62" fill="#f4f4f4"/><path class="cls-6" d="M32.78 22h95.81a6.42 6.42 0 016.41 6.46v8.8H26.36v-8.8A6.42 6.42 0 0132.78 22z"/><path class="cls-6" d="M80.68 0a22.57 22.57 0 00-22.57 22.57h45.14A22.56 22.56 0 0080.68 0zm0 16.6a4.78 4.78 0 114.78-4.78 4.78 4.78 0 01-4.78 4.78z"/><g class="cls-7"><path class="cls-8" d="M44.74 82.07H27.12a3.4 3.4 0 01-3.4-3.4V61a3.4 3.4 0 013.4-3.4h17.62a3.4 3.4 0 013.4 3.4v17.67a3.4 3.4 0 01-3.4 3.4zM27.12 59.24a1.79 1.79 0 00-1.8 1.8v17.63a1.8 1.8 0 001.8 1.8h17.62a1.81 1.81 0 001.81-1.8V61a1.81 1.81 0 00-1.81-1.8z"/></g><path class="cls-3" d="M26.39 71l8.74 7.35 18.98-17.79-3.99-4.09-14.9 15.42-5.3-4.49-3.53 3.6z"/><path class="cls-8" d="M58.11 60.25h74.43v4.62H58.11zm0 7.8h55.19v4.62H58.11zm0 7.8h31.94v4.62H58.11z"/><g class="cls-7"><path class="cls-8" d="M44.74 124.11H27.12a3.4 3.4 0 01-3.4-3.4v-17.63a3.4 3.4 0 013.4-3.39h17.62a3.4 3.4 0 013.4 3.39v17.63a3.4 3.4 0 01-3.4 3.4zm-17.62-22.83a1.81 1.81 0 00-1.81 1.8v17.63a1.81 1.81 0 001.81 1.8h17.62a1.81 1.81 0 001.81-1.8v-17.63a1.81 1.81 0 00-1.81-1.8z"/></g><path class="cls-3" d="M26.39 113.04l8.74 7.35 18.98-17.78-3.99-4.1-14.9 15.42-5.3-4.49-3.53 3.6z"/><path class="cls-8" d="M58.11 102.29h74.43v4.62H58.11zm0 7.8h55.19v4.62H58.11zm0 7.8h31.94v4.62H58.11z"/><g class="cls-7"><path class="cls-8" d="M44.74 166.15H27.12a3.4 3.4 0 01-3.4-3.4v-17.63a3.4 3.4 0 013.4-3.39h17.62a3.4 3.4 0 013.4 3.39v17.63a3.4 3.4 0 01-3.4 3.4zm-17.62-22.83a1.81 1.81 0 00-1.81 1.8v17.63a1.79 1.79 0 001.8 1.8h17.63a1.8 1.8 0 001.81-1.8v-17.63a1.81 1.81 0 00-1.81-1.8z"/></g><path class="cls-3" d="M26.39 155.08l8.74 7.35 18.98-17.78-3.99-4.1-14.9 15.42-5.3-4.49-3.53 3.6z"/><path class="cls-8" d="M58.11 144.33h74.43v4.62H58.11zm0 7.8h55.19v4.62H58.11zm0 7.81h31.94v4.62H58.11z"/><g class="cls-7"><path class="cls-8" d="M44.74 208.19H27.12a3.4 3.4 0 01-3.4-3.4v-17.62a3.4 3.4 0 013.4-3.4h17.62a3.4 3.4 0 013.4 3.4v17.62a3.4 3.4 0 01-3.4 3.4zm-17.62-22.82a1.79 1.79 0 00-1.8 1.8v17.62a1.81 1.81 0 001.81 1.81h17.61a1.81 1.81 0 001.81-1.81v-17.62a1.8 1.8 0 00-1.81-1.8z"/></g><path class="cls-3" d="M26.39 197.12l8.74 7.35 18.98-17.78-3.99-4.1-14.9 15.43-5.3-4.5-3.53 3.6z"/><path class="cls-8" d="M58.11 186.37h74.43v4.62H58.11zm0 7.81h55.19v4.62H58.11zm0 7.8h31.94v4.62H58.11z"/></g></g></g></svg>