<svg xmlns="http://www.w3.org/2000/svg" width="64" height="64"><path data-name="Path 338" d="M32 64A32 32 0 010 32 32 32 0 0132 0a32 32 0 0132 32 32 32 0 01-32 32z" fill="#e73237"/><path data-name="Path 339" d="M22.429 34.595a.743.743 0 001.083-.542c.1-.381.336-1.343.441-1.743a1.053 1.053 0 00-.312-1.21 6.287 6.287 0 01-1.425-4.26 10.261 10.261 0 0110.643-10.4c5.806 0 9 3.564 9 8.324 0 6.262-2.76 11.546-6.855 11.546a3.358 3.358 0 01-3.413-4.182c.65-2.751 1.909-5.721 1.909-7.708 0-1.777-.95-3.26-2.916-3.26-2.312 0-4.17 2.4-4.17 5.621a8.382 8.382 0 00.691 3.437l-2.781 11.833a24.443 24.443 0 00-.065 8.252.287.287 0 00.513.126 23.2 23.2 0 003.9-7.108c.266-.966 1.521-5.969 1.521-5.969a6.186 6.186 0 005.281 2.705c6.951 0 11.665-6.364 11.665-14.882 0-6.443-5.43-12.442-13.686-12.442-10.272 0-15.452 7.4-15.452 13.566 0 3.736 1.409 7.059 4.428 8.295z" fill="#fefefe"/></svg>