<svg xmlns="http://www.w3.org/2000/svg" viewBox="0 0 36.94 50.79"><defs><style>.cls-1{fill:none;stroke:#77ccd2;stroke-miterlimit:10;stroke-width:1.5px}</style></defs><g id="Layer_2" data-name="Layer 2"><g id="Layer_1-2" data-name="Layer 1"><path class="cls-1" d="M24.17 2.24L35 13a.72.72 0 01-.51 1.23h-8.93a2.88 2.88 0 01-2.88-2.88V2.86a.87.87 0 011.49-.62z"/><path d="M.07 20.84v14.09h32.49v-14.1H.07z" fill="#00a9c4"/><path d="M3.89 24.42a.44.44 0 01.42-.42h2.21a3.78 3.78 0 014 3.77 3.8 3.8 0 01-4 3.79H4.31a.44.44 0 01-.42-.43zm2.63 6.36a2.93 2.93 0 003.14-3 3 3 0 00-3.14-3H4.75v6zM12 27.8a3.87 3.87 0 117.73 0 3.87 3.87 0 11-7.73 0zm6.84 0a3 3 0 00-3-3.13 3 3 0 00-3 3.11 3 3 0 003 3.13 3 3 0 003.02-3.11zm2.38 0a3.83 3.83 0 013.84-3.92 3.88 3.88 0 012.7 1 .44.44 0 01.18.34.45.45 0 01-.44.43.55.55 0 01-.28-.1 3.08 3.08 0 00-2.17-.87 3 3 0 00-2.94 3.11 3 3 0 002.94 3.13A3.13 3.13 0 0027.3 30a.36.36 0 01.27-.12.42.42 0 01.41.41.41.41 0 01-.14.3A3.86 3.86 0 0125 31.7a3.78 3.78 0 01-3.78-3.9z" fill="#f7faf7"/><path class="cls-1" d="M21.5.75H3.58A2.83 2.83 0 00.75 3.58v43.63A2.83 2.83 0 003.58 50h29.77a2.84 2.84 0 002.84-2.83V15.44a2.84 2.84 0 00-.83-2L23.51 1.58A2.85 2.85 0 0021.5.75z"/></g></g></svg>