<svg xmlns="http://www.w3.org/2000/svg" viewBox="0 0 36.94 50.79"><defs><style>.cls-2{fill:none;stroke:#f6965d;stroke-miterlimit:10;stroke-width:1.5px}</style></defs><g id="Layer_2" data-name="Layer 2"><g id="Layer_1-2" data-name="Layer 1"><path d="M.75 20.76V34.9h32.73V20.69H.82z" fill="#ec673a"/><path class="cls-2" d="M21.5.75H3.58A2.83 2.83 0 00.75 3.58v43.63A2.83 2.83 0 003.58 50h29.77a2.84 2.84 0 002.84-2.83V15.44a2.84 2.84 0 00-.83-2L23.51 1.58A2.85 2.85 0 0021.5.75z"/><path class="cls-2" d="M24.17 2.24L35 13a.72.72 0 01-.51 1.23h-8.93a2.88 2.88 0 01-2.88-2.88V2.86a.87.87 0 011.49-.62z"/><path d="M6.26 24.31a.44.44 0 01.44-.44h2.42c1.72 0 2.85.92 2.85 2.43 0 1.64-1.37 2.49-3 2.49H7.12v2.32a.43.43 0 11-.86 0zM9 28c1.26 0 2.09-.68 2.09-1.68 0-1.09-.82-1.66-2-1.66H7.12V28zm4.54-3.69a.44.44 0 01.44-.44h2.21a3.81 3.81 0 014.06 3.8 3.83 3.83 0 01-4.06 3.82H14a.43.43 0 01-.43-.43zm2.65 6.4a3 3 0 003.17-3 3 3 0 00-3.17-3h-1.78v6zm5.88-6.4a.44.44 0 01.44-.44h4.71a.4.4 0 010 .8h-4.29v2.73h3.8a.39.39 0 010 .78h-3.8v2.95a.43.43 0 01-.43.43.43.43 0 01-.43-.43z" fill="#f7faf7"/></g></g></svg>