<svg xmlns="http://www.w3.org/2000/svg" width="64.001" height="64"><path data-name="Path 331" d="M32 64A32 32 0 010 32 32 32 0 0132 0a32 32 0 0132 32 32 32 0 01-32 32z" fill="#505058"/><path data-name="Path 351" d="M48.034 40.889V27.292a8.785 8.785 0 01-2 1.715q-1.06.686-4.132 2.651t-4.721 3.089q-3.056 2.152-5.114 2.152t-5.114-2.152q-1.466-1-4.428-2.885T18.1 28.976a9.815 9.815 0 01-1.029-.842q-.655-.593-.967-.842v13.6a2.981 2.981 0 002.994 2.994H45.04a2.981 2.981 0 002.994-2.994zm0-17.869a3.058 3.058 0 00-.858-2.183 2.823 2.823 0 00-2.136-.9H19.093a2.887 2.887 0 00-2.121.873 2.887 2.887 0 00-.872 2.116 3.941 3.941 0 00.951 2.386 9.128 9.128 0 002.105 2.011q1.466 1 4.288 2.776t4.039 2.588l.53.359q.437.3.655.437t.655.405q.437.265.733.405t.67.3a4.62 4.62 0 00.7.234 2.66 2.66 0 001.279 0 4.62 4.62 0 00.7-.234q.374-.156.67-.3t.733-.405q.437-.265.655-.405t.658-.436l.53-.359 8.327-5.426a9.041 9.041 0 002.074-1.949 3.785 3.785 0 00.982-2.294z" fill="#fff"/></svg>