<svg xmlns="http://www.w3.org/2000/svg" width="64" height="63.999"><defs><radialGradient id="a" cx=".266" cy="1.077" r=".991" gradientTransform="matrix(0 -1 .93 0 -2.918 5.666)" gradientUnits="objectBoundingBox"><stop offset="0" stop-color="#fd5"/><stop offset=".1" stop-color="#fd5"/><stop offset=".5" stop-color="#ff543e"/><stop offset="1" stop-color="#c837ab"/></radialGradient></defs><path data-name="Intersection 1" d="M32 64A32 32 0 010 32.315v-.631A32 32 0 0132 0a32 32 0 0132 31.779v.444A32 32 0 0132 64z" fill="url(#a)"/><path data-name="Path 354" d="M32.189 12.804c-5.162 0-5.809.023-7.837.115a13.941 13.941 0 00-4.613.885 9.725 9.725 0 00-5.558 5.559 13.9 13.9 0 00-.883 4.615c-.093 2.026-.117 2.678-.117 7.842s.023 5.811.115 7.839a13.982 13.982 0 00.885 4.616 9.729 9.729 0 005.558 5.563 13.953 13.953 0 004.614.883c2.027.092 2.675.115 7.836.115s5.808-.023 7.835-.115a13.961 13.961 0 004.615-.883 9.741 9.741 0 005.558-5.563 14.1 14.1 0 00.883-4.615c.091-2.028.115-2.675.115-7.839s-.024-5.813-.115-7.841a14.1 14.1 0 00-.883-4.615 9.726 9.726 0 00-5.562-5.561 13.984 13.984 0 00-4.617-.883c-2.027-.094-2.672-.117-7.837-.117zm-1.7 3.427h1.7c5.075 0 5.676.018 7.68.109a10.517 10.517 0 013.529.655 6.3 6.3 0 013.606 3.609 10.512 10.512 0 01.655 3.53c.091 2 .111 2.607.111 7.682s-.02 5.677-.111 7.682a10.523 10.523 0 01-.655 3.53 6.3 6.3 0 01-3.606 3.607 10.479 10.479 0 01-3.529.655c-2 .091-2.605.111-7.68.111s-5.676-.02-7.68-.111a10.538 10.538 0 01-3.528-.656 6.3 6.3 0 01-3.608-3.608 10.512 10.512 0 01-.655-3.53c-.091-2-.109-2.607-.109-7.685s.018-5.677.109-7.682a10.533 10.533 0 01.655-3.531 6.3 6.3 0 013.608-3.61 10.494 10.494 0 013.529-.656c1.753-.079 2.433-.1 5.975-.107zm11.85 3.157a2.282 2.282 0 102.281 2.281 2.281 2.281 0 00-2.281-2.281zm-10.15 2.667a9.765 9.765 0 109.759 9.766 9.763 9.763 0 00-9.759-9.766zm0 3.427a6.339 6.339 0 11-6.335 6.339 6.337 6.337 0 016.335-6.339z" fill="#fff"/></svg>