<svg xmlns="http://www.w3.org/2000/svg" width="63.013" height="63.012"><path data-name="Path 340" d="M31.507 63.012A31.506 31.506 0 010 31.507 31.506 31.506 0 0131.507 0a31.507 31.507 0 0131.507 31.507 31.507 31.507 0 01-31.507 31.505z" fill="#007fc0"/><g data-name="Group 372" fill="#fefefe"><path data-name="Path 341" d="M17.225 45.527h6.5V24.516h-6.5z"/><path data-name="Path 342" d="M20.444 21.71a3.878 3.878 0 10-3.845-3.878 3.862 3.862 0 003.845 3.878z"/><path data-name="Path 343" d="M34.182 34.493c0-2.953 1.36-4.714 3.963-4.714 2.391 0 3.54 1.689 3.54 4.714v11.029h6.474v-13.3c0-5.628-3.19-8.349-7.645-8.349a7.325 7.325 0 00-6.331 3.472v-2.83h-6.238v21.011h6.238V34.493z"/></g></svg>