<svg xmlns="http://www.w3.org/2000/svg" width="64.001" height="63.999"><path data-name="Path 335" d="M32.001 63.999a32 32 0 01-32-32 32 32 0 0132-32 32 32 0 0132 32 32 32 0 01-32 32z" fill="#e6332a"/><g data-name="Group 371"><path data-name="Path 336" d="M50.398 22.791a4.828 4.828 0 00-3.395-3.422c-3-.809-15-.809-15-.809s-12.009 0-15 .809a4.829 4.829 0 00-3.4 3.422c-.8 3.018-.8 9.315-.8 9.315s0 6.3.8 9.316a4.833 4.833 0 003.4 3.422c2.994.809 15 .809 15 .809s12.008 0 15-.809a4.827 4.827 0 003.395-3.422c.8-3.019.8-9.316.8-9.316s.002-6.297-.8-9.315z" fill="#fefefe"/><path data-name="Path 337" d="M26.285 39.703V24.511l13.354 7.6z" fill="#e6332a"/></g></svg>